<svg xmlns="http://www.w3.org/2000/svg" viewBox="0 0 1440 830" fill="none" aria-hidden="true">
<g stroke="#6a1e1e" stroke-width="0.7" stroke-opacity="0.13">
<path d="M 106 194 L 97 166"/>
<path d="M 106 194 L 143 97"/>
<path d="M 295 137 L 270 200"/>
<path d="M 295 137 L 201 153"/>
<path d="M 295 137 L 428 152"/>
<path d="M 97 166 L 107 88"/>
<path d="M 251 240 L 270 200"/>
<path d="M 251 240 L 340 233"/>
<path d="M 107 88 L 143 97"/>
<path d="M 270 200 L 340 233"/>
<path d="M 270 200 L 201 153"/>
<path d="M 340 233 L 428 152"/>
<path d="M 201 153 L 143 97"/>
<path d="M 647 128 L 614 117"/>
<path d="M 647 128 L 660 159"/>
<path d="M 647 128 L 722 132"/>
<path d="M 614 117 L 660 159"/>
<path d="M 614 117 L 582 132"/>
<path d="M 660 159 L 722 132"/>
<path d="M 506 159 L 534 110"/>
<path d="M 506 159 L 529 120"/>
<path d="M 534 110 L 529 120"/>
<path d="M 534 110 L 582 132"/>
<path d="M 1394 127 L 1280 100"/>
<path d="M 1394 127 L 1206 94"/>
<path d="M 1197 51 L 1138 70"/>
<path d="M 1197 51 L 1175 81"/>
<path d="M 1197 51 L 1280 100"/>
<path d="M 1197 51 L 1206 94"/>
<path d="M 1107 170 L 1123 152"/>
<path d="M 1107 170 L 1185 130"/>
<path d="M 1123 152 L 1185 130"/>
<path d="M 1138 70 L 1175 81"/>
<path d="M 1175 81 L 1185 130"/>
<path d="M 1175 81 L 1206 94"/>
<path d="M 1280 100 L 1206 94"/>
<path d="M 1185 130 L 1206 94"/>
<path d="M 1422 324 L 1398 295"/>
<path d="M 1422 324 L 1422 351"/>
<path d="M 1422 324 L 1422 313"/>
<path d="M 1422 358 L 1422 351"/>
<path d="M 1422 358 L 1422 353"/>
<path d="M 1398 295 L 1422 313"/>
<path d="M 1422 351 L 1422 353"/>
<path d="M 138 530 L 132 491"/>
<path d="M 138 530 L 54 501"/>
<path d="M 138 530 L 132 558"/>
<path d="M 132 491 L 54 501"/>
<path d="M 132 491 L 132 558"/>
<path d="M 158 594 L 184 571"/>
<path d="M 158 594 L 171 554"/>
<path d="M 184 571 L 171 554"/>
<path d="M 171 554 L 132 558"/>
<path d="M 454 743 L 391 700"/>
<path d="M 454 743 L 500 812"/>
<path d="M 281 812 L 342 800"/>
<path d="M 281 812 L 322 780"/>
<path d="M 347 811 L 500 812"/>
<path d="M 347 811 L 342 800"/>
<path d="M 347 811 L 322 780"/>
<path d="M 391 700 L 339 714"/>
<path d="M 342 800 L 322 780"/>
<path d="M 339 714 L 322 780"/>
<path d="M 887 812 L 887 767"/>
<path d="M 887 812 L 834 804"/>
<path d="M 887 812 L 913 735"/>
<path d="M 824 812 L 774 812"/>
<path d="M 824 812 L 713 739"/>
<path d="M 824 812 L 834 804"/>
<path d="M 774 812 L 713 739"/>
<path d="M 774 812 L 834 804"/>
<path d="M 887 767 L 913 735"/>
<path d="M 1360 787 L 1404 812"/>
<path d="M 1360 787 L 1415 722"/>
<path d="M 1360 787 L 1337 769"/>
<path d="M 1360 787 L 1422 785"/>
<path d="M 1351 662 L 1415 722"/>
<path d="M 1351 662 L 1337 769"/>
<path d="M 1404 812 L 1337 769"/>
<path d="M 1404 812 L 1422 785"/>
<path d="M 1415 722 L 1422 785"/>
</g>
<g stroke="#832d2d" stroke-width="0.8" stroke-opacity="0.15" stroke-linecap="round">
<path d="M 428 152 Q 467 161, 506 159"/>
<path d="M 722 132 Q 917 124, 1107 170"/>
<path d="M 1394 127 Q 1408 211, 1398 295"/>
<path d="M 251 240 Q 209 374, 132 491"/>
<path d="M 184 571 Q 251 653, 339 714"/>
<path d="M 500 812 Q 612 790, 713 739"/>
<path d="M 913 735 Q 1128 722, 1337 769"/>
<path d="M 1422 358 Q 1408 515, 1351 662"/>
</g>
<g stroke="#6a1e1e" stroke-width="1.1" stroke-opacity="0.3" stroke-linecap="round" stroke-dasharray="1 7">
<path d="M 251 240 Q 397 197, 529 120"/>
<path d="M 529 120 Q 837 131, 1138 70"/>
<path d="M 1138 70 Q 1297 193, 1422 351"/>
<path d="M 1422 351 Q 1405 565, 1337 769"/>
</g>
<g>
<circle cx="106" cy="194" r="1.5" fill="#6a1e1e" fill-opacity="0.20"/>
<circle cx="295" cy="137" r="1.4" fill="#6a1e1e" fill-opacity="0.19"/>
<circle cx="97" cy="166" r="2.4" fill="#6a1e1e" fill-opacity="0.17"/>
<circle cx="251" cy="240" r="3.2" fill="#6a1e1e" fill-opacity="0.34"/>
<circle cx="251" cy="240" r="6.5" fill="none" stroke="#6a1e1e" stroke-opacity="0.18" stroke-width="0.8"/>
<circle cx="107" cy="88" r="1.9" fill="#832d2d" fill-opacity="0.19"/>
<circle cx="270" cy="200" r="1.9" fill="#6a1e1e" fill-opacity="0.25"/>
<circle cx="340" cy="233" r="2.3" fill="#6a1e1e" fill-opacity="0.21"/>
<circle cx="201" cy="153" r="1.7" fill="#6a1e1e" fill-opacity="0.16"/>
<circle cx="428" cy="152" r="1.5" fill="#6a1e1e" fill-opacity="0.17"/>
<circle cx="143" cy="97" r="1.5" fill="#6a1e1e" fill-opacity="0.17"/>
<circle cx="647" cy="128" r="1.8" fill="#832d2d" fill-opacity="0.16"/>
<circle cx="614" cy="117" r="2.1" fill="#832d2d" fill-opacity="0.17"/>
<circle cx="660" cy="159" r="1.7" fill="#6a1e1e" fill-opacity="0.17"/>
<circle cx="722" cy="132" r="1.5" fill="#832d2d" fill-opacity="0.25"/>
<circle cx="506" cy="159" r="1.4" fill="#6a1e1e" fill-opacity="0.21"/>
<circle cx="534" cy="110" r="2.1" fill="#6a1e1e" fill-opacity="0.20"/>
<circle cx="529" cy="120" r="3.2" fill="#6a1e1e" fill-opacity="0.34"/>
<circle cx="529" cy="120" r="6.5" fill="none" stroke="#6a1e1e" stroke-opacity="0.18" stroke-width="0.8"/>
<circle cx="582" cy="132" r="1.5" fill="#6a1e1e" fill-opacity="0.17"/>
<circle cx="1394" cy="127" r="1.7" fill="#6a1e1e" fill-opacity="0.20"/>
<circle cx="1197" cy="51" r="2.3" fill="#6a1e1e" fill-opacity="0.23"/>
<circle cx="1107" cy="170" r="1.9" fill="#6a1e1e" fill-opacity="0.21"/>
<circle cx="1123" cy="152" r="1.9" fill="#6a1e1e" fill-opacity="0.19"/>
<circle cx="1138" cy="70" r="3.2" fill="#6a1e1e" fill-opacity="0.34"/>
<circle cx="1138" cy="70" r="6.5" fill="none" stroke="#6a1e1e" stroke-opacity="0.18" stroke-width="0.8"/>
<circle cx="1175" cy="81" r="1.4" fill="#6a1e1e" fill-opacity="0.26"/>
<circle cx="1280" cy="100" r="2.2" fill="#6a1e1e" fill-opacity="0.23"/>
<circle cx="1185" cy="130" r="2.3" fill="#6a1e1e" fill-opacity="0.20"/>
<circle cx="1206" cy="94" r="2.0" fill="#832d2d" fill-opacity="0.21"/>
<circle cx="1422" cy="324" r="1.7" fill="#6a1e1e" fill-opacity="0.25"/>
<circle cx="1422" cy="358" r="1.6" fill="#6a1e1e" fill-opacity="0.20"/>
<circle cx="1398" cy="295" r="2.0" fill="#832d2d" fill-opacity="0.24"/>
<circle cx="1422" cy="351" r="3.2" fill="#6a1e1e" fill-opacity="0.34"/>
<circle cx="1422" cy="351" r="6.5" fill="none" stroke="#6a1e1e" stroke-opacity="0.18" stroke-width="0.8"/>
<circle cx="1422" cy="313" r="1.6" fill="#6a1e1e" fill-opacity="0.18"/>
<circle cx="1422" cy="353" r="2.3" fill="#6a1e1e" fill-opacity="0.18"/>
<circle cx="138" cy="530" r="1.8" fill="#6a1e1e" fill-opacity="0.25"/>
<circle cx="132" cy="491" r="1.5" fill="#832d2d" fill-opacity="0.26"/>
<circle cx="54" cy="501" r="1.5" fill="#832d2d" fill-opacity="0.21"/>
<circle cx="158" cy="594" r="2.2" fill="#6a1e1e" fill-opacity="0.20"/>
<circle cx="184" cy="571" r="2.1" fill="#832d2d" fill-opacity="0.23"/>
<circle cx="171" cy="554" r="2.0" fill="#832d2d" fill-opacity="0.19"/>
<circle cx="132" cy="558" r="1.7" fill="#6a1e1e" fill-opacity="0.22"/>
<circle cx="454" cy="743" r="1.7" fill="#6a1e1e" fill-opacity="0.20"/>
<circle cx="281" cy="812" r="2.0" fill="#6a1e1e" fill-opacity="0.22"/>
<circle cx="347" cy="811" r="1.6" fill="#6a1e1e" fill-opacity="0.24"/>
<circle cx="391" cy="700" r="2.2" fill="#832d2d" fill-opacity="0.24"/>
<circle cx="500" cy="812" r="1.5" fill="#6a1e1e" fill-opacity="0.17"/>
<circle cx="342" cy="800" r="2.0" fill="#6a1e1e" fill-opacity="0.20"/>
<circle cx="339" cy="714" r="1.6" fill="#6a1e1e" fill-opacity="0.24"/>
<circle cx="322" cy="780" r="2.1" fill="#6a1e1e" fill-opacity="0.24"/>
<circle cx="887" cy="812" r="1.4" fill="#832d2d" fill-opacity="0.18"/>
<circle cx="824" cy="812" r="1.9" fill="#6a1e1e" fill-opacity="0.25"/>
<circle cx="774" cy="812" r="2.4" fill="#832d2d" fill-opacity="0.18"/>
<circle cx="887" cy="767" r="2.1" fill="#6a1e1e" fill-opacity="0.18"/>
<circle cx="713" cy="739" r="2.3" fill="#6a1e1e" fill-opacity="0.20"/>
<circle cx="834" cy="804" r="1.6" fill="#6a1e1e" fill-opacity="0.25"/>
<circle cx="913" cy="735" r="2.0" fill="#6a1e1e" fill-opacity="0.23"/>
<circle cx="1360" cy="787" r="2.2" fill="#6a1e1e" fill-opacity="0.19"/>
<circle cx="1351" cy="662" r="2.4" fill="#832d2d" fill-opacity="0.17"/>
<circle cx="1404" cy="812" r="2.2" fill="#6a1e1e" fill-opacity="0.25"/>
<circle cx="1415" cy="722" r="1.6" fill="#6a1e1e" fill-opacity="0.20"/>
<circle cx="1337" cy="769" r="3.2" fill="#6a1e1e" fill-opacity="0.34"/>
<circle cx="1337" cy="769" r="6.5" fill="none" stroke="#6a1e1e" stroke-opacity="0.18" stroke-width="0.8"/>
<circle cx="1422" cy="785" r="1.7" fill="#832d2d" fill-opacity="0.26"/>
</g>
</svg>