<svg xmlns="http://www.w3.org/2000/svg" viewBox="0 0 1440 800" fill="none" aria-hidden="true">
  <g opacity="0.55">
    <path d="M48 180 Q 120 140, 210 168 T 320 248" stroke="#6a1e1e" stroke-opacity="0.35" stroke-width="0.9" fill="none" stroke-linecap="round"/>
    <path d="M62 420 Q 140 380, 228 398 T 310 520" stroke="#6a1e1e" stroke-opacity="0.28" stroke-width="0.75" fill="none" stroke-linecap="round"/>
    <path d="M88 580 Q 168 540, 248 558" stroke="#832d2d" stroke-opacity="0.22" stroke-width="0.7" fill="none" stroke-linecap="round"/>
    <path d="M210 168 L 228 398" stroke="#6a1e1e" stroke-opacity="0.18" stroke-width="0.65" fill="none"/>
    <path d="M228 398 L 248 558" stroke="#6a1e1e" stroke-opacity="0.16" stroke-width="0.65" fill="none"/>
    <circle cx="210" cy="168" r="2.5" fill="#6a1e1e" fill-opacity="0.4"/>
    <circle cx="228" cy="398" r="2" fill="#6a1e1e" fill-opacity="0.35"/>
    <circle cx="248" cy="558" r="2" fill="#832d2d" fill-opacity="0.32"/>
    <circle cx="62" cy="420" r="1.5" fill="#6a1e1e" fill-opacity="0.28"/>
  </g>
  <g opacity="0.55">
    <path d="M1392 180 Q 1320 140, 1230 168 T 1120 248" stroke="#6a1e1e" stroke-opacity="0.35" stroke-width="0.9" fill="none" stroke-linecap="round"/>
    <path d="M1378 420 Q 1300 380, 1212 398 T 1130 520" stroke="#6a1e1e" stroke-opacity="0.28" stroke-width="0.75" fill="none" stroke-linecap="round"/>
    <path d="M1352 580 Q 1272 540, 1192 558" stroke="#832d2d" stroke-opacity="0.22" stroke-width="0.7" fill="none" stroke-linecap="round"/>
    <path d="M1230 168 L 1212 398" stroke="#6a1e1e" stroke-opacity="0.18" stroke-width="0.65" fill="none"/>
    <path d="M1212 398 L 1192 558" stroke="#6a1e1e" stroke-opacity="0.16" stroke-width="0.65" fill="none"/>
    <circle cx="1230" cy="168" r="2.5" fill="#6a1e1e" fill-opacity="0.4"/>
    <circle cx="1212" cy="398" r="2" fill="#6a1e1e" fill-opacity="0.35"/>
    <circle cx="1192" cy="558" r="2" fill="#832d2d" fill-opacity="0.32"/>
    <circle cx="1378" cy="420" r="1.5" fill="#6a1e1e" fill-opacity="0.28"/>
  </g>
</svg>
